<svg width="368" height="368" viewBox="0 0 368 368" fill="none" xmlns="http://www.w3.org/2000/svg">
    <g clip-path="url(#clip0_21_163)">
        <rect width="368" height="368" fill="#FFFADF"/>
        <path d="M239 45V64.042C222.648 55.7106 203.961 51 184.216 51C121.219 51 69.0002 98.9449 69 159.461V257V358.372H12V13H212L239 45Z" fill="#2A4650"/>
        <path d="M249.051 78.2762C246.462 36.1093 207.836 4.16852 162.776 6.93445" stroke="#4E7989" stroke-width="20" stroke-linecap="round" stroke-linejoin="round"/>
        <path d="M289.432 221.158V231.158C294.954 231.158 299.432 226.681 299.432 221.158H289.432ZM238.144 211.158C232.621 211.158 228.144 215.635 228.144 221.158C228.144 226.681 232.621 231.158 238.144 231.158V221.158V211.158ZM79 159.461H89C89 111.22 130.994 70.9999 184.216 70.9999V60.9999V50.9999C121.219 50.9999 69 98.9449 69 159.461H79ZM184.216 60.9999V70.9999C237.437 70.9999 279.432 111.22 279.432 159.461H289.432H299.432C299.432 98.9449 247.212 50.9999 184.216 50.9999V60.9999ZM289.432 159.461H279.432V221.158H289.432H299.432V159.461H289.432ZM289.432 221.158V211.158H238.144V221.158V231.158H289.432V221.158ZM79 159.461H69V348H79H89V159.461H79Z" fill="#4E7989"/>
        <path d="M121.075 353.711C128.254 298.838 96.837 246.447 46.3659 238.509L46.3659 353.711L121.075 353.711Z" fill="#2A4650"/>
        <rect x="10" y="10" width="348" height="348" stroke="#4E7989" stroke-width="20"/>
        <circle cx="222.856" cy="157.058" r="28.0576" fill="#2A4650"/>
        <rect x="118" y="133" width="48" height="48" fill="#2A4650"/>
        <path d="M224.285 345.182C221.17 346.427 218.056 347.672 214.942 348.917C218.435 355.449 221.928 361.981 225.421 368.514C228.186 366.615 230.951 364.717 233.715 362.818C235.225 361.823 236.697 360.742 238.025 359.683C261.512 340.378 274.202 311.453 272.397 284.031C272.308 282.506 272.179 281.023 272.013 279.5C271.846 281.023 271.641 282.489 271.398 283.98C267.241 310.768 249.088 333.088 227.693 343.737C226.554 344.277 225.36 344.796 224.285 345.182Z" fill="#4E7989"/>
        <path d="M158.796 48.0736C155.624 46.9908 152.452 45.9081 149.28 44.8254C152.378 38.1394 155.475 31.4533 158.573 24.7673C161.45 26.487 164.327 28.2068 167.204 29.9265C168.744 30.8234 170.284 31.7891 171.735 32.7598C196.901 49.9808 217.861 77.8624 215.074 107.635C214.925 109.257 214.712 110.8 214.434 112.394C214.38 110.777 214.259 109.237 214.074 107.647C210.544 78.8467 186.421 59.3602 162.727 49.4889C161.412 48.9698 160.062 48.4758 158.796 48.0736Z" fill="#2A4650"/>
        <path d="M244.22 255.11C244.703 254.737 245.071 254.214 245.217 253.611C245.362 253.009 245.277 252.382 244.974 251.858C244.671 251.334 244.17 250.948 243.575 250.774C242.98 250.599 242.344 250.657 241.78 250.89C241.78 250.89 241.78 250.89 241.78 250.89C239.955 251.632 238.1 252.294 236.231 252.891C219.31 258.102 201.578 259.408 184 259.5C184 259.5 184 259.5 184 259.5C166.422 259.408 148.69 258.102 131.769 252.891C129.9 252.294 128.045 251.632 126.22 250.89C125.656 250.657 125.02 250.599 124.425 250.774C123.83 250.948 123.329 251.334 123.026 251.858C122.723 252.382 122.638 253.009 122.783 253.611C122.929 254.214 123.297 254.737 123.78 255.11C123.78 255.11 123.78 255.11 123.78 255.11C125.477 256.404 127.251 257.603 129.071 258.715C145.644 268.606 165.051 272.427 184 272.5C184 272.5 184 272.5 184 272.5C202.949 272.427 222.356 268.606 238.929 258.715C240.749 257.603 242.523 256.404 244.22 255.11Z" fill="#A9011B"/>
    </g>
    <defs>
        <clipPath id="clip0_21_163">
            <rect width="368" height="368" fill="white"/>
        </clipPath>
    </defs>
</svg>
